<svg width="141" height="141" viewBox="0 0 141 141" fill="none" xmlns="http://www.w3.org/2000/svg">
<g id="Logo 1">
<g id="Group">
<g id="Clip path group">
<mask id="mask0_413_68" style="mask-type:luminance" maskUnits="userSpaceOnUse" x="14" y="23" width="110" height="95">
<g id="clip0">
<path id="Vector" d="M123.456 23.6567H14.5413V117.343H123.456V23.6567Z" fill="white"/>
</g>
</mask>
<g mask="url(#mask0_413_68)">
<g id="Group_2">
<g id="Clip path group_2">
<mask id="mask1_413_68" style="mask-type:luminance" maskUnits="userSpaceOnUse" x="14" y="23" width="110" height="95">
<g id="clip1">
<path id="Vector_2" d="M123.456 23.6567H14.5413V117.343H123.456V23.6567Z" fill="white"/>
</g>
</mask>
<g mask="url(#mask1_413_68)">
<g id="Group_3">
<g id="Clip path group_3">
<mask id="mask2_413_68" style="mask-type:luminance" maskUnits="userSpaceOnUse" x="14" y="23" width="110" height="95">
<g id="clip2">
<path id="Vector_3" d="M123.456 23.6567H14.5413V117.343H123.456V23.6567Z" fill="white"/>
</g>
</mask>
<g mask="url(#mask2_413_68)">
<g id="Group_4">
<path id="Vector_4" d="M14.7402 50.4744C15.2371 47.9628 17.3057 46.9743 20.5949 47.6441C32.1747 50.0044 40.5786 60.7856 40.6651 73.6084C40.7353 83.5955 40.6218 74.775 40.6651 84.7675C40.7245 94.1657 40.9189 106.589 49.3877 108.858C50.814 109.156 52.2568 109.369 53.7084 109.495C53.784 112.104 53.8813 114.712 53.9677 117.321H53.9193C33.8814 118.067 32.9092 100.248 32.8552 85.7128C32.8012 75.5151 32.8552 84.1301 32.8282 73.9325C32.8282 64.4584 27.7998 57.8904 18.737 55.3626C15.6962 54.52 14.2811 52.7753 14.7402 50.4744Z" fill="#EB6263"/>
<path id="Vector_5" d="M116.193 49.2591L115.34 30.0519L105.618 43.7065C109.251 45.3442 112.782 47.1984 116.193 49.2591Z" fill="#EB6263"/>
<path id="Vector_6" d="M116.873 110.872H112.515C99.6712 90.7685 110.354 69.6871 110.354 69.6871C117.813 63.4969 119.698 62.4814 121.086 56.8101C121.405 55.5246 118.996 53.3641 115.766 51.2036C112.11 48.9248 108.28 46.9381 104.311 45.2621C103.873 45.1054 103.463 44.965 103.101 44.8624L87.8645 23.6567L83.7868 45.6726C54.0813 92.0216 57.7915 117.343 57.7915 117.343H123.344C123.338 113.772 120.444 110.878 116.873 110.872ZM87.913 47.1363C88.1778 45.2567 89.9654 33.8058 89.9654 33.8058L98.3694 44.3871L87.913 47.1363Z" fill="#EB6263"/>
</g>
</g>
</g>
</g>
</g>
</g>
</g>
</g>
</g>
</g>
</g>
</svg>
